<svg xmlns="http://www.w3.org/2000/svg" data-name="Layer 1" viewBox="442.68 247.31 316.64 707.37">

 <g>
  <title>Layer 1</title>
  <path fill="#fff" d="m508.58,878.87c0.15,16.3 0.06,43.52 -0.58,48.38a157.82,157.82 0 0 0 -1.06,21.63l77.84,3.8a2.26,2.26 0 0 0 1.56,-4q-48.84,-40.77 -48.58,-46.09l-2.61,-27.16l-26.57,3.44z" class="cls-2" id="Path-33"/>
  <path id="svg_1" fill="#fff" d="m627.44,439.92c-0.85,27.91 13.28,120.77 12.68,124.08c9.7,7 17.18,33.58 12.54,41.19c-3.09,4.24 -22,4.58 -27,-30.74c-9.66,-19.6 -21.66,-59.51 -29.42,-115.06c-0.67,-5.16 2.15,-38.12 3.21,-43.82c0,0 -9.78,-25 13.14,-22.49s14.85,46.84 14.85,46.84z" class="cls-2"/>
  <path fill="#c2c2c2" d="m609.44,363.28c25.6,0 28.37,63.79 26.4,64.27s-39.27,-2.4 -43.41,-2.38c-6.43,0.02 -10.85,-61.83 17.01,-61.89z" class="cls-3" id="Path-24"/>
  <path id="svg_2" stroke-width="4px" stroke-linejoin="round" stroke-linecap="round" stroke="#242424" fill="none" d="m594.06,442.16c0.73,5.75 1.51,12.07 2.18,17.23c7.76,55.55 19.76,95.46 29.46,115.06c5,35.32 23.87,35 27,30.74c4.64,-7.61 -2.84,-34.18 -12.54,-41.19c-0.32,-0.53 -0.76,-3.61 -1.3,-8.44" class="cls-4"/>
  <path id="svg_3" fill="#242424" d="m588.25,446.28a5.3,5.3 0 0 1 -5.25,-4.56l-1.13,-8.08a5.28,5.28 0 0 1 4.71,-6l66.33,-6.79a5.32,5.32 0 0 1 5.84,5.17l0.14,7.13a5.3,5.3 0 1 1 -10.6,0.21l0,-1.37l-55.12,5.64l0.37,2.62a5.31,5.31 0 0 1 -4.52,6a4.68,4.68 0 0 1 -0.77,0.03z" class="cls-5"/>
  <path id="svg_4" fill="#242424" d="m658,936.25a2.64,2.64 0 0 1 -2.62,-2.28l-69.75,-492.62a2.65,2.65 0 1 1 5.25,-0.74l69.39,490.15l2,-0.16l-11.33,-497.29a2.65,2.65 0 1 1 5.3,-0.12l11.4,499.81a2.66,2.66 0 0 1 -2.45,2.71l-7,0.54l-0.19,0z" class="cls-5"/>
  <path id="svg_5" fill="#242424" d="m606.48,607.25a5.31,5.31 0 0 1 -0.41,-10.6l53.33,-4.16a5.31,5.31 0 1 1 0.83,10.58l-53.34,4.16l-0.41,0.02z" class="cls-5"/>
  <line id="svg_6" stroke-width="4px" stroke-linejoin="round" stroke-linecap="round" stroke="#242424" fill="none" y2="874" x2="662.43" y1="874.92" x1="650.66" class="cls-4"/>
  <path fill="#242424" d="m508.57,550.5l-3,180.19l-10.9,160.6c18.05,4.1 56.3,3.54 60.28,0.51l10.79,-152.48l2.51,-122.52a54.67,54.67 0 0 0 10.58,-0.56a60,60 0 0 0 10.48,-3.17l19.71,99.28l30.55,160.43q21.51,0.79 32,-0.48a98.34,98.34 0 0 0 23.27,-6.23l-33.84,-161.4l-26.41,-154.17l-126.02,0z" class="cls-5" id="Path-31"/>
  <path stroke-width="4px" stroke-linejoin="round" stroke-linecap="round" stroke="#242424" fill="none" d="m508.74,898.55s-1.87,41.75 -1.8,50.33l77.84,3.8a2.26,2.26 0 0 0 1.56,-4q-48.84,-40.77 -48.58,-46.09" class="cls-4" data-name="Path-33" id="Path-33-2"/>
  <polygon fill="#fff" points="526.63 363.21 541.04 359.58 545.28 330.94 540.3 324.58 538.3 315.55 531.5 314.55 528.33 307.99 530.48 301.22 532.7 299.27 530.35 287.24 575.91 285.77 578.5 287.37 584.03 299.41 586.68 312.9 583.37 324.17 577.86 330.96 570.19 335.48 567.41 335.07 563.87 361.56 583.57 361.57 564.58 381.32 525.55 380.6 526.63 363.21" class="cls-2" id="Path-36"/>
  <path stroke-width="4px" stroke-linejoin="round" stroke-linecap="round" stroke="#242424" fill="none" d="m532.32,361.4c2.14,-1 10.56,-1.31 10.56,-1.31l2.41,-29.15s-4.21,-4.64 -5,-6.36s-1.43,-4.71 -1.95,-9q-11,-0.75 -9.72,-9.63t11.13,-6.43" class="cls-4" id="Path-20"/>
  <path stroke-width="4px" stroke-linejoin="round" stroke-linecap="round" stroke="#242424" fill="none" d="m581.22,294.09q7.06,13.14 4.91,22.07q-5.45,17.89 -19.64,19.54l-2.57,24s8,1.15 9.75,1.17" class="cls-4" id="Path-21"/>
  <path stroke-width="4px" stroke-linejoin="round" stroke-linecap="round" stroke="#242424" fill="none" d="m531.83,294.77a23.37,23.37 0 0 1 9.57,-0.46" class="cls-4" id="Path-22"/>
  <path fill="#242424" d="m530.66,292.28q7.59,-2.16 12.75,-1.39q0.81,-2.28 2,-5.09q9.63,13.54 33.17,2.54c23.54,-11 1.56,-51.65 -22.2,-38.4q-12.86,7.4 -14.87,12.89q-9.48,0 -12,5.13q-4.79,6.81 1.15,24.32z" class="cls-5" id="Path-23"/>
  <path fill="#c2c2c2" d="m503.69,502.35l-1.69,46.59q42.79,14.73 67,14.51c16.17,-0.15 70.94,-15.78 70.94,-15.78l-9.81,-57.31s-6,-118.53 -16.37,-125.92s-31.48,-6.77 -33.2,-6.25s-7.79,14.65 -23.55,16.17s-29.9,-13.4 -31,-13.27s-35.79,14.77 -36.43,15.18s14.11,126.08 14.11,126.08z" class="cls-3" data-name="Path-24" id="Path-24-2"/>
  <path id="svg_7" fill="#242424" d="m606,515.05l0,0z" class="cls-5"/>
  <path id="svg_8" fill="#fff" d="m604.07,712.2c25.33,-10.93 45.85,-14.26 62.31,-11.17c0,0 32.6,174.55 41.75,180.65l49.19,45.23l-110.32,13.41l-42.93,-228.12z" class="cls-2"/>
  <path id="svg_9" stroke-width="4px" stroke-linejoin="round" stroke-linecap="round" stroke="#242424" fill="none" d="m666.38,701s32.62,174.58 41.75,180.68l49.19,45.23l-110.32,13.41l-42.93,-228.12" class="cls-4"/>
  <path id="svg_10" stroke-width="4px" stroke-linejoin="round" stroke-linecap="round" stroke="#242424" fill="none" d="m670,719c-5.23,4.9 -41,39.9 -56.06,43.29" class="cls-4"/>
  <path id="svg_11" stroke-width="4px" stroke-linejoin="round" stroke-linecap="round" stroke="#242424" fill="none" d="m677.27,757.67c-22.39,12.27 -39.22,22.28 -59.61,24.76" class="cls-4"/>
  <path id="svg_12" stroke-width="4px" stroke-linejoin="round" stroke-linecap="round" stroke="#242424" fill="none" d="m683.76,789.25c-6.83,9.33 -40.1,51 -54.55,54.39" class="cls-4"/>
  <path id="svg_13" stroke-width="4px" stroke-linejoin="round" stroke-linecap="round" stroke="#242424" fill="none" d="m691,822.87c-1.49,14 -41.39,83 -49.44,86.67" class="cls-4"/>
  <path id="svg_14" stroke-width="4px" stroke-linejoin="round" stroke-linecap="round" stroke="#242424" fill="none" d="m708.13,881.68c-21.66,12.85 -49.78,39.09 -64.36,41.39" class="cls-4"/>
  <path id="svg_15" stroke-width="4px" stroke-linejoin="round" stroke-linecap="round" stroke="#242424" fill="none" d="m721.57,894.37c7.27,-0.27 -21.27,39.47 -30.87,40.63" class="cls-4"/>
  <path id="svg_16" stroke-width="4px" stroke-linejoin="round" stroke-linecap="round" stroke="#242424" fill="none" d="m740.52,911.77c5.82,2.91 -8.31,17.12 -15.63,18.72" class="cls-4"/>
  <path id="svg_17" fill="#242424" d="m448.52,446.26a5.53,5.53 0 0 1 -5.53,-5.39l-0.22,-8.32a5.54,5.54 0 0 1 5.61,-5.68l71,1.07a5.49,5.49 0 0 1 4,1.85a5.54,5.54 0 0 1 1.38,4.23l-0.72,7.25a5.53,5.53 0 1 1 -11,-1.09l0.12,-1.26l-59.16,-0.92l0.07,2.56a5.53,5.53 0 0 1 -5.39,5.68l-0.16,0.02z" class="cls-5"/>
  <path id="svg_18" fill="#242424" d="m469.81,952.08l-0.11,0l-7.47,-0.28a2.77,2.77 0 0 1 -2.66,-2.69l-13.82,-508.31a2.77,2.77 0 0 1 5.54,-0.15l13.71,505.71l2.26,0.08l48.53,-506a2.77,2.77 0 0 1 5.51,0.53l-48.74,508.6a2.76,2.76 0 0 1 -2.75,2.51z" class="cls-5"/>
  <path id="svg_19" fill="#242424" d="m505.15,614l-0.21,0l-56.94,-2.2a5.53,5.53 0 0 1 0.42,-11.06l56.94,2.17a5.54,5.54 0 0 1 -0.21,11.07l0,0.02z" class="cls-5"/>
  <line id="svg_20" stroke-width="4px" stroke-linejoin="round" stroke-linecap="round" stroke="#242424" fill="none" y2="889.07" x2="474.29" y1="888.59" x1="461.72" class="cls-4"/>
  <path id="svg_21" fill="#fff" d="m485.7,454.9c-8.7,27.43 -9.33,113.1 -8.16,116.22c8.36,8.57 11.2,36 5.32,42.73c-3.76,3.65 -22.46,0.75 -21.31,-34.9c-6.22,-21 -11.72,-54.13 -9.92,-110.19c0.22,-5.2 8.63,-37.2 10.64,-42.63c0,0 6.7,-29.24 26.1,-16.78s-2.67,45.55 -2.67,45.55z" class="cls-2"/>
  <path fill="#c2c2c2" d="m505.08,427.42c12.16,-7.33 -3.58,-51.72 -15.26,-51.28c-11.73,1.78 -38.91,59.69 -37.05,60.5s39.1,4.36 43.23,5.06s-3.09,-6.95 9.08,-14.28z" class="cls-3" data-name="Path-24" id="Path-24-3"/>
  <path id="svg_22" stroke-width="4px" stroke-linejoin="round" stroke-linecap="round" stroke="#242424" fill="none" d="m458.27,566.23c1,4.69 2.15,8.91 3.28,12.72c-1.15,35.65 17.55,38.55 21.31,34.9c5.88,-6.7 3,-34.16 -5.32,-42.73c-1.17,-3.1 2,-95.33 8.87,-114" class="cls-4"/>
  <rect id="svg_23" fill="none" height="1200" width="1200" class="cls-6"/>
 </g>
</svg>