<svg xmlns="http://www.w3.org/2000/svg" data-name="Layer 1" viewBox="207.8 403.8 786.4 359.01">

 <g>
  <title>Layer 1</title>
  <path id="svg_1" stroke-width="4px" stroke-miterlimit="10" stroke="#202020" fill="#fff" d="m209.94,626l0,-110.9a75.92,75.92 0 0 1 75.92,-75.91l116.73,0a75.92,75.92 0 0 1 75.91,75.91l0,108.55l-268.56,2.35z" class="cls-2"/>
  <path fill="#242424" d="m347.73,513.14q-0.11,10.53 2.58,16.72c-1.69,1.34 -3.57,2.9 -5.62,4.68q20,6.33 14.37,40.86c-5.64,34.52 -63.38,24.22 -55,-11.54q4.8,-19.44 10.91,-24.35q-3.24,-12 2.29,-17.37q6.79,-8.97 30.47,-9z" class="cls-3" id="Path-23"/>
  <path id="svg_2" stroke-linecap="round" stroke="#242424" fill="none" stroke-width="4px" d="m346.41,525c-13.63,4.13 -15.23,13.59 -15.23,13.59c-10.59,32.48 60.54,71 81.41,32.19c0,0 3.23,-7.34 3.23,-13.26" class="cls-4"/>
  <path id="svg_3" stroke-linecap="round" stroke="#242424" fill="none" stroke-width="4px" d="m418.26,541.46c-5.56,-22.75 -31.35,-20.06 -31.49,-20.06c-0.9,-5.1 -1.45,-13 -9.84,-14.39c-11.28,-1.88 -16.62,3.41 -15.7,14.39" class="cls-4"/>
  <path id="svg_4" stroke-linecap="round" stroke="#242424" fill="none" stroke-width="4px" d="m418.26,541.46l23.74,0s11.42,-15.08 16.31,-17.74" class="cls-4"/>
  <path id="svg_5" stroke-linecap="round" stroke="#242424" fill="none" stroke-width="4px" d="m415.82,561.79l10.63,0s-8.7,20.41 -8,25.33" class="cls-4"/>
  <path id="svg_6" stroke-linecap="round" stroke="#242424" fill="none" stroke-width="4px" d="m354.51,524.27s-1.35,-9.17 0,-11.13" class="cls-4"/>
  <path id="svg_7" stroke-linecap="round" stroke="#242424" fill="none" stroke-width="4px" d="m411.55,601.43l-7,0c-4.14,-0.41 -3.54,-7.1 -11,-7.1c-15.55,0 -53.34,14.57 -36,19.85c0,0 10.81,2.52 19.9,2.52c5.28,0 5.1,-2.64 11.39,-2.67l8.15,0" class="cls-4"/>
  <path id="svg_8" stroke-width="4px" stroke-miterlimit="10" stroke="#202020" fill="#fff" d="m242.61,752.1c0,11.61 -18.09,11.61 -18.09,0l0,-46l18.09,0l0,46z" class="cls-2"/>
  <path id="svg_9" stroke-width="4px" stroke-miterlimit="10" stroke="#202020" fill="#fff" d="m331.76,752.1c0,11.61 -18.09,11.61 -18.09,0l0,-46l18.09,0l0,46z" class="cls-2"/>
  <path id="svg_10" stroke-width="4px" stroke-miterlimit="10" stroke="#202020" fill="#fff" d="m842,752.1c0,11.61 -18.08,11.61 -18.08,0l0,-46l18.08,0l0,46z" class="cls-2"/>
  <path id="svg_11" stroke-width="4px" stroke-miterlimit="10" stroke="#202020" fill="#fff" d="m952.65,752.1c0,11.61 -18.09,11.61 -18.09,0l0,-46l18.09,0l0,46z" class="cls-2"/>
  <path id="svg_12" stroke-width="4px" stroke-miterlimit="10" stroke="#202020" fill="#fff" d="m739.8,623.64l225.88,0c26.52,0 26.52,84.48 26.52,84.48l-252.4,0l0,-84.48z" class="cls-2"/>
  <path id="svg_13" stroke-linecap="round" stroke="#242424" fill="none" stroke-width="4px" d="m405.47,619.47a39.16,39.16 0 0 1 -14.2,2.64l-61.93,0a39.42,39.42 0 0 1 0,-78.84" class="cls-4"/>
  <polygon id="svg_14" fill="#242424" points="739.8 622.11 207.8 622.11 207.8 710.02 739.79 710.02 739.8 622.11" class="cls-3"/>
  <path id="svg_15" fill="#c2c2c2" d="m919.83,593.06c72.37,44.55 -44.87,35.25 -85.94,35.25c-111.81,0 -339.85,-0.15 -430,-3c-22.41,-0.7 17.91,-24.58 17.09,-25.25c-4.91,-4.05 -3.72,-86 34.8,-86c11.43,0 43.23,-14.82 75.71,-9.44s93.18,32.38 143.14,22.2s221.37,46.38 245.2,66.24z" class="cls-5"/>
  <path id="svg_16" stroke-linecap="round" stroke="#242424" fill="none" stroke-width="4px" d="m807.09,567.78c-16.07,-4.4 -29.67,-8.9 -36.24,-13.71" class="cls-4"/>
  <path id="svg_17" stroke-linecap="round" stroke="#242424" fill="none" stroke-width="4px" d="m896,594.11c-13.43,-7.81 -43.86,-14.8 -71.84,-21.87" class="cls-4"/>
  <path id="svg_18" stroke-linecap="round" stroke="#242424" fill="none" stroke-width="4px" d="m412.29,614.44c7.69,-7.71 18.91,-6.64 18.91,-14.59s-6,-21.75 -3.56,-26.65" class="cls-4"/>
  <path id="svg_19" stroke-linecap="round" stroke="#242424" fill="none" stroke-width="4px" d="m458.89,525.64c18.12,1.72 39.9,-16.1 65.34,-11.08s39.68,12.78 55.21,14.51" class="cls-4"/>
  <line id="svg_20" stroke-linecap="round" stroke-width="4px" stroke-miterlimit="10" stroke="#202020" fill="#fff" y2="628.28" x2="915.75" y1="628.28" x1="756.87" class="cls-6"/>
  <path id="svg_21" stroke-linecap="round" stroke-width="4px" stroke-miterlimit="10" stroke="#202020" fill="#fff" d="m228.41,560.83l-0.47,-35.83c0,-47.28 40.8,-68.54 79.16,-69.54" class="cls-6"/>
  <polyline id="svg_22" stroke-linejoin="round" stroke-linecap="round" stroke="#242424" fill="none" stroke-width="4px" points="355.08 460.89 374.91 455.44 363.07 471.79 384.29 471.79" class="cls-7"/>
  <polyline id="svg_23" stroke-width="3px" stroke-linejoin="round" stroke-linecap="round" stroke="#242424" fill="none" points="382.84 415.16 396.44 411.42 390 428.8 402.88 422.64" class="cls-8"/>
  <polyline id="svg_24" stroke-width="2px" stroke-linejoin="round" stroke-linecap="round" stroke="#242424" fill="none" points="428.49 407 436.47 404.8 432.69 415.01 440.25 411.39" class="cls-9"/>
 </g>
</svg>