<svg xmlns="http://www.w3.org/2000/svg" data-name="Layer 1" viewBox="177.69 202.67 846.6 796.66">

 <g>
  <title>Layer 1</title>
  <path id="svg_1" fill="#fff" d="m862.23,969.08l-53.74,0a19.28,19.28 0 0 0 -19.25,19.25l0,9l92.23,0l0,-9a19.27,19.27 0 0 0 -19.24,-19.25z" class="cls-2"/>
  <path fill="#242424" d="m604,252.87q-7.42,-14.44 -3.3,-24.38c4.13,-9.92 16.26,-24.17 37.76,-25.71s41.69,13.8 50.33,33.51q8.66,19.71 5.11,44.94q-4,8.77 -10.1,10.06c-6.11,1.29 -19.16,0.74 -24.21,-2.86q-5.03,-3.6 -55.59,-35.56z" class="cls-3" id="Path-102"/>
  <path fill="#fff" d="m606.71,252.31l-2.48,16.3l5.53,17.23l11.5,10.92l10.87,3.95l3.79,18.05l1.92,12.15l-31.9,4.42l17.74,16.83l50.73,8.43l43.56,-25c-8.09,-3.29 -19.77,-4.52 -33.22,-4.74l-17,-2l-8.46,-33.85l6.6,-13.87l1.89,-12.31l7.54,-2.46l-0.18,-12.64l-6.79,-5l-10.64,0l-8.85,-9.82l-0.62,-9.65l-24.68,19.57l-16.85,3.49z" class="cls-2" id="Path-103"/>
  <path stroke-width="4px" stroke-linecap="round" stroke="#242424" fill="none" d="m606.71,252.31a42.08,42.08 0 0 0 1.52,30.62q6.53,14.85 24.92,17.5l4.69,30.48a61.4,61.4 0 0 0 -13,1.49" class="cls-4" id="Path-86"/>
  <path stroke-width="4px" stroke-linecap="round" stroke="#242424" fill="none" d="m607,251.1q4.37,1.88 15.09,-3.17t26.11,-18.73a18.8,18.8 0 0 0 2.66,12.69a17.89,17.89 0 0 0 9.43,7.91q9.1,-4.47 13.32,2.46c4.23,6.93 3,13.62 0.68,15.2c-1.53,1.05 -3.72,1.5 -6.55,1.37q1.34,5.71 -2.53,14.33t-6.32,9.84l7.59,36.15l17.75,1.06" class="cls-4" id="Path-87"/>
  <path stroke-width="4px" stroke-linecap="round" stroke="#242424" fill="none" d="m629.76,299.77a20.3,20.3 0 0 0 7.85,0.9a33.29,33.29 0 0 0 11.31,-2.86" class="cls-4" id="Path-98"/>
  <path stroke-width="4px" stroke-linecap="round" stroke="#242424" fill="none" d="m683,294.76a10.52,10.52 0 0 0 6,-1.25q3.39,-1.62 6.69,-7.58" class="cls-4" id="Path-104"/>
  <path fill="#242424" d="m684.54,298.53c1.65,0.44 4.24,-0.11 7.77,-1.63s6,-4.52 7.48,-9q4.58,-1 11,7c6.38,7.94 5.92,19.71 10.84,24.83q4.92,5.12 14.1,8.44q-26,8.83 -38.45,-4.31t-12.74,-25.33z" class="cls-3" id="Path-105"/>
  <path fill="#fff" d="m589.58,343.53c-10.21,10.58 -38.29,59.28 -38.29,59.28l-52,-32.49c-8.8,-22.55 -21.51,-36.67 -43.1,-31.61c0,11.51 4.52,23 12.24,34.36l10.57,6.19l73.6,64.23l14.95,9.82l10,-2l48.82,-88.5c-1.68,-25.55 -19.95,-36.74 -36.79,-19.28z" class="cls-2" id="Path-108"/>
  <path stroke-width="4px" stroke-linecap="round" stroke="#242424" fill="none" d="m598,337.8c-8.23,0.8 -47.47,64.81 -46.75,65l-52,-32.49c-8.8,-22.55 -21.51,-36.67 -43.1,-31.61c0,11.51 4.52,23 12.24,34.36l10.61,6.2l73.6,64.23l14.95,9.82l10,-2l18.72,-33.31" class="cls-4" data-name="Path-108" id="Path-108-2"/>
  <path fill="#c2c2c2" d="m615.91,331.52c8.94,0.88 14.57,19.32 32,21.67s22.42,-8.73 45,-23.32c18.59,0.45 26.15,0.39 38.77,21.2c18.53,35.07 -10.43,81.46 -10.43,81.46l18.68,126.77l-131.16,-9.58c3,-19.59 6.38,-34 7.76,-42.34c5.62,-33.81 0.65,-62.3 1.41,-67.86c-45.82,-49.26 -10.94,-108.88 -2.03,-108z" class="cls-5" id="Path-88"/>
  <path id="svg_2" fill="#fff" d="m379.59,901.42l66.65,-34.25l82.89,-202.56l91.94,-116.76l40.32,31.75l-87.5,111.11l-94.13,230.06l-97.76,-7.55a6.26,6.26 0 0 1 -2.41,-11.8z" class="cls-2"/>
  <path id="svg_3" stroke-width="4px" stroke-linecap="round" stroke="#242424" fill="none" d="m584.64,677.06l-10.75,13.65l-94.13,230.06l-97.76,-7.55a6.26,6.26 0 0 1 -2.38,-11.8l66.65,-34.25l82.89,-202.56l26.13,-33.19" class="cls-4"/>
  <path id="svg_4" fill="#fff" d="m1018.08,662.75l-60.65,-24.75s-140.17,102.74 -160.09,104s-99.46,-138.87 -99.46,-138.87l43.82,-26.72l60.86,101.76l157.54,-97.65l60.85,75c2.82,2.84 0.87,7.72 -2.87,7.23z" class="cls-2"/>
  <path id="svg_5" stroke-width="4px" stroke-linecap="round" stroke="#242424" fill="none" d="m782.7,646l19.86,32.26l157.54,-97.74l60.85,75c2.82,2.81 0.87,7.69 -2.87,7.2l-60.65,-24.72s-148,106.44 -162,103.33s-55.9,-69.33 -55.9,-69.33" class="cls-4"/>
  <path id="svg_6" fill="#242424" d="m549.63,610.2c0.77,-3 58.8,-66.36 58.8,-66.36s126.81,-4.05 133.7,-2.13c11.12,3.09 56.76,75.84 53.14,82.66s-58.42,53.98 -72.27,48.63s-46.24,-55.14 -45.12,-52.13c0.32,-35.52 -63.83,53.75 -63.83,53.75s-66.44,-56.5 -64.42,-64.42z" class="cls-3"/>
  <path fill="#fff" d="m713.53,372.49c12.62,9.51 64.47,62.21 64.47,62.21l-16.44,56.22c-19.93,11.73 -30.19,25.89 -18.38,45.61c11.56,-1.76 21.67,-7.73 30.73,-16.75l3,-10.94l41.75,-67.47l10.17,-13l-1.83,-10.32s-69.53,-65.78 -95.87,-79.57s-38.13,18.52 -17.6,34.01z" class="cls-2" data-name="Path-108" id="Path-108-3"/>
  <path stroke-width="4px" stroke-linecap="round" stroke="#242424" fill="none" d="m741.24,397.79c19.81,18.87 36.76,36.91 36.76,36.91l-16.44,56.22c-19.93,11.73 -30.19,25.89 -18.38,45.61c11.56,-1.76 21.67,-7.73 30.73,-16.75l3,-10.94l41.75,-67.47s10.1,-7.3 9,-18.79s-91,-87.48 -102.16,-87" class="cls-4" data-name="Path-108" id="Path-108-4"/>
  <path id="svg_7" fill="#c2c2c2" d="m354.13,399a21.32,21.32 0 0 0 -20.31,-15.1l-27.61,0a21.29,21.29 0 0 0 -20.06,14.33a21.35,21.35 0 0 0 -0.71,2.56a21.11,21.11 0 0 0 0.44,10.36l0,0.09l0,0.09l50.6,148.38l2.93,-7.27l4.67,-11.44a22.68,22.68 0 0 1 21.12,-14.26l32.21,0l-43.28,-127.74z" class="cls-5"/>
  <path id="svg_8" fill="#9e9e9e" d="m642.07,593l-246.76,0l24.69,-61.15l193.51,0a14,14 0 0 1 10.61,4.87l6.2,7.19l22.36,25.94a14,14 0 0 1 -10.61,23.15z" class="cls-6"/>
  <path id="svg_9" fill="#676767" d="m654.61,568.17l-22.36,-25.94l-0.45,-0.52l-0.66,-0.22a17,17 0 0 0 -5.55,-0.92l-209.11,0l-1,2.56l210.11,0a14.84,14.84 0 0 1 4.73,0.78l22.36,25.94a14,14 0 0 1 -10.61,23.15l-246.76,0l-1,2.56l247.76,0a16.56,16.56 0 0 0 12.54,-27.39z" class="cls-7"/>
  <path id="svg_10" fill="#676767" d="m522.07,585.47c-13.76,0 -26.43,-11.09 -28.29,-24.76l0,0c-0.76,-5.55 2.51,-10.05 7.3,-10.05l119.31,0a7.62,7.62 0 0 1 5.6,2.77l16.62,18.86c4.56,5.17 2.48,13.18 -3.41,13.18l-117.13,0z" class="cls-7"/>
  <path id="svg_11" fill="#fff" d="m262.1,969.08l-53.74,0a19.28,19.28 0 0 0 -19.25,19.25l0,9l92.24,0l0,-9a19.28,19.28 0 0 0 -19.25,-19.25z" class="cls-2"/>
  <path id="svg_12" stroke-width="4px" stroke-linecap="round" stroke="#242424" fill="none" d="m189.11,988.33l0,9l92.24,0l0,-9c0,-0.49 0,-1 -0.06,-1.45" class="cls-4"/>
  <path id="svg_13" stroke-width="4px" stroke-linecap="round" stroke="#242424" fill="none" d="m789.27,987.3c0,0.34 0,0.68 0,1l0,9l92.23,0l0,-9" class="cls-4"/>
  <path id="svg_14" fill="#242424" d="m861.9,923.65l-524.8,0l0,18.53l524.8,0a9.27,9.27 0 1 0 0,-18.53z" class="cls-3"/>
  <path id="svg_15" fill="#c2c2c2" d="m864.89,938.35l-499.09,-0.1a28.64,28.64 0 0 0 -28.53,-26.61l-36.27,0l0,-78.12l-97.31,0a26,26 0 0 0 -26,26l0,85.87l0,0l0,34l712.51,0l0,-7.57c0,-16.59 -10.65,-27.96 -25.31,-33.47z" class="cls-5"/>
  <path id="svg_16" fill="#c2c2c2" d="m656.56,566.51l-22.36,-25.94l-6.19,-7.2a19.12,19.12 0 0 0 -14.5,-6.65l-248.31,0a22.68,22.68 0 0 0 -21.12,14.28l-118.08,292.52l72.23,0l95,-235.39l248.84,0a19.13,19.13 0 0 0 14.49,-31.62z" class="cls-5"/>
  <line id="svg_17" stroke-width="4px" stroke-linecap="round" stroke="#242424" fill="none" y2="938.25" x2="191.81" y1="938.25" x1="365.8" class="cls-4"/>
  <line id="svg_18" stroke-width="4px" stroke-linecap="round" stroke="#242424" fill="none" y2="911.56" x2="190.91" y1="911.56" x1="300.97" class="cls-4"/>
  <polyline id="svg_19" stroke-width="4px" stroke-linecap="round" stroke="#242424" fill="none" points="299.57 883.48 299.57 833.52 417.5 537.72 611.03 537.72" class="cls-4"/>
  <line id="svg_20" stroke-width="4px" stroke-linecap="round" stroke="#242424" fill="none" y2="598.13" x2="549.85" y1="598.13" x1="394.76" class="cls-4"/>
  <path id="svg_21" stroke-width="4px" stroke-linecap="round" stroke="#242424" fill="none" d="m480.71,554.63l145.29,0l9.25,11.08a8.2,8.2 0 0 1 -6.3,13.46l-132.76,0a15.49,15.49 0 0 1 -15.48,-15.49l0,-9.05z" class="cls-4"/>
  <path id="svg_22" stroke-width="4px" stroke-linecap="round" stroke="#242424" fill="none" d="m385.92,527.76l-40.68,-117.34c-6.19,-20.35 -39.13,-12.87 -39.13,-12.87a10.1,10.1 0 0 0 -6.91,13l48.47,141.15" class="cls-4"/>
  <polyline id="svg_23" stroke-width="4px" stroke-linecap="round" stroke="#242424" fill="none" points="353.39 539.26 232.59 842.83 205.28 842.83" class="cls-4"/>
  <line id="svg_24" stroke-width="4px" stroke-linecap="round" stroke="#242424" fill="none" y2="531.07" x2="373.69" y1="397.42" x1="326.99" class="cls-4"/>
  <path id="svg_25" stroke-width="4px" stroke-linecap="round" stroke="#242424" fill="none" d="m606.58,339.38c-23.66,43.62 -7.58,72.43 11.36,100.14" class="cls-4"/>
  <polyline id="svg_26" stroke-width="4px" stroke-linecap="round" stroke="#242424" fill="none" points="709.58 407.15 721.24 432.53 725.05 463" class="cls-4"/>
  <path id="svg_27" stroke-width="4px" stroke-linecap="round" stroke="#242424" fill="none" d="m732,402.65c1.34,6.92 -3.68,17.77 -10.75,29.88" class="cls-4"/>
 </g>
</svg>